# vtk DataFile Version 2.0
movingWall
ASCII
DATASET POLYDATA
POINTS 42 float
0 0.1 0 0 0.1 0.01 0.005 0.1 0.01 0.005 0.1
0 0.01 0.1 0.01 0.01 0.1 0 0.015 0.1 0.01
0.015 0.1 0 0.02 0.1 0.01 0.02 0.1 0 0.025
0.1 0.01 0.025 0.1 0 0.03 0.1 0.01 0.03 0.1
0 0.035 0.1 0.01 0.035 0.1 0 0.04 0.1 0.01
0.04 0.1 0 0.045 0.1 0.01 0.045 0.1 0 0.05
0.1 0.01 0.05 0.1 0 0.055 0.1 0.01 0.055 0.1
0 0.06 0.1 0.01 0.06 0.1 0 0.065 0.1 0.01
0.065 0.1 0 0.07 0.1 0.01 0.07 0.1 0 0.075
0.1 0.01 0.075 0.1 0 0.08 0.1 0.01 0.08 0.1
0 0.085 0.1 0.01 0.085 0.1 0 0.09 0.1 0.01
0.09 0.1 0 0.095 0.1 0.01 0.095 0.1 0 0.1
0.1 0.01 0.1 0.1 0 
POLYGONS 20 100
4 0 1 2 3 4 3 2 4 5 4
5 4 6 7 4 7 6 8 9 4
9 8 10 11 4 11 10 12 13 4
13 12 14 15 4 15 14 16 17 4
17 16 18 19 4 19 18 20 21 4
21 20 22 23 4 23 22 24 25 4
25 24 26 27 4 27 26 28 29 4
29 28 30 31 4 31 30 32 33 4
33 32 34 35 4 35 34 36 37 4
37 36 38 39 4 39 38 40 41 
CELL_DATA 20
FIELD attributes 6
patchID 1 20 float
0 0 0 0 0 0 0 0 0 0 0
0 0 0 0 0 0 0 0 0 
p 1 20 float
-0.00383405 -0.00072361 -0.000134872 -0.000699442 -0.00190028 -0.0035726 -0.00545497 -0.00726198 -0.0087907 -0.00991047 -0.0105514
-0.0106738 -0.0102534 -0.00926434 -0.00766214 -0.00528537 -0.00126457 0.0057872 0.017789 0.0356238 
nut 1 20 float
0 0 0 0 0 0 0 0 0 0 0
0 0 0 0 0 0 0 0 0 
k 1 20 float
7.3111e-05 0.000112783 0.00020474 0.000295409 0.000361852 0.000404066 0.000427025 0.000440771 0.000447251 0.000450976 0.000452264
0.000454703 0.000457467 0.000463578 0.000468814 0.000483857 0.000504119 0.000527205 0.000521698 0.000466225 
epsilon 1 20 float
0.000233909 0.000360843 0.000655059 0.000945161 0.00115776 0.00129284 0.00136631 0.00141031 0.00143105 0.00144298 0.00144712
0.00145494 0.0014638 0.00148338 0.00150015 0.00154831 0.00161315 0.00168702 0.0016694 0.00149188 
U 3 20 float
1 0 0 1 0 0 1 0 0 1 0
0 1 0 0 1 0 0 1 0 0
1 0 0 1 0 0 1 0 0 1
0 0 1 0 0 1 0 0 1 0
0 1 0 0 1 0 0 1 0 0
1 0 0 1 0 0 1 0 0 
POINT_DATA  42
FIELD attributes 5
p 1 42 float
-0.00383405 -0.00383405 -0.00227883 -0.00227883 -0.000429241 -0.000429241 -0.000417157 -0.000417157 -0.00129986 -0.00129986 -0.00273644
-0.00273644 -0.00451378 -0.00451378 -0.00635847 -0.00635847 -0.00802634 -0.00802634 -0.00935058 -0.00935058 -0.0102309
-0.0102309 -0.0106126 -0.0106126 -0.0104636 -0.0104636 -0.00975887 -0.00975887 -0.00846324 -0.00846324 -0.00647375
-0.00647375 -0.00327497 -0.00327497 0.00226132 0.00226132 0.0117881 0.0117881 0.0267064 0.0267064 0.0356238
0.0356238 
nut 1 42 float
0 0 0 0 0 0 0 0 0 0 0
0 0 0 0 0 0 0 0 0 0
0 0 0 0 0 0 0 0 0 0
0 0 0 0 0 0 0 0 0 0
0 
k 1 42 float
7.3111e-05 7.3111e-05 9.2947e-05 9.2947e-05 0.000158761 0.000158761 0.000250074 0.000250074 0.000328631 0.000328631 0.000382959
0.000382959 0.000415546 0.000415546 0.000433898 0.000433898 0.000444011 0.000444011 0.000449113 0.000449113 0.00045162
0.00045162 0.000453483 0.000453483 0.000456085 0.000456085 0.000460523 0.000460523 0.000466196 0.000466196 0.000476335
0.000476335 0.000493988 0.000493988 0.000515662 0.000515662 0.000524451 0.000524451 0.000493962 0.000493962 0.000466225
0.000466225 
epsilon 1 42 float
0.000233909 0.000233909 0.000297376 0.000297376 0.000507951 0.000507951 0.00080011 0.00080011 0.00105146 0.00105146 0.0012253
0.0012253 0.00132957 0.00132957 0.00138831 0.00138831 0.00142068 0.00142068 0.00143702 0.00143702 0.00144505
0.00144505 0.00145103 0.00145103 0.00145937 0.00145937 0.00147359 0.00147359 0.00149177 0.00149177 0.00152423
0.00152423 0.00158073 0.00158073 0.00165008 0.00165008 0.00167821 0.00167821 0.00158064 0.00158064 0.00149188
0.00149188 
U 3 42 float
1 0 0 1 0 0 1 0 0 1 0
0 1 0 0 1 0 0 1 0 0
1 0 0 1 0 0 1 0 0 1
0 0 1 0 0 1 0 0 1 0
0 1 0 0 1 0 0 1 0 0
1 0 0 1 0 0 1 0 0 1
0 0 1 0 0 1 0 0 1 0
0 1 0 0 1 0 0 1 0 0
1 0 0 1 0 0 1 0 0 1
0 0 1 0 0 1 0 0 1 0
0 1 0 0 1 0 0 1 0 0
1 0 0 1 0 0 1 0 0 1
0 0 1 0 0 
